<mxfile host="app.diagrams.net" modified="2024-06-28T09:12:49.068Z" agent="Mozilla/5.0 (Windows NT 10.0; Win64; x64) AppleWebKit/537.36 (KHTML, like Gecko) Chrome/126.0.0.0 Safari/537.36 Edg/126.0.0.0" etag="1dnQDZ-QGmBNqR0ogOKj" version="24.6.4" type="github">
  <diagram name="第 1 页" id="Do2yNHhP7MYPO5L7pLm-">
    <mxGraphModel dx="1386" dy="905" grid="1" gridSize="10" guides="1" tooltips="1" connect="1" arrows="1" fold="1" page="1" pageScale="1" pageWidth="827" pageHeight="1169" math="0" shadow="0">
      <root>
        <mxCell id="0" />
        <mxCell id="1" parent="0" />
        <mxCell id="vEPfFsJE0u8WYmD6qUds-1" value="stack" style="rounded=0;whiteSpace=wrap;html=1;align=center;verticalAlign=top;fillColor=#ffe6cc;strokeColor=#d79b00;" vertex="1" parent="1">
          <mxGeometry x="220" y="30" width="170" height="540" as="geometry" />
        </mxCell>
        <mxCell id="vEPfFsJE0u8WYmD6qUds-2" value="heap" style="rounded=0;whiteSpace=wrap;html=1;verticalAlign=top;fillColor=#dae8fc;strokeColor=#6c8ebf;" vertex="1" parent="1">
          <mxGeometry x="447" y="30" width="160" height="539" as="geometry" />
        </mxCell>
        <mxCell id="vEPfFsJE0u8WYmD6qUds-22" value="let str =&amp;nbsp;&lt;div&gt;String::from(&quot;hello world&quot;);&lt;/div&gt;&lt;div&gt;&lt;br&gt;&lt;/div&gt;" style="rounded=0;whiteSpace=wrap;html=1;verticalAlign=bottom;fillColor=#f8cecc;strokeColor=#b85450;dashed=1;" vertex="1" parent="1">
          <mxGeometry x="230" y="60" width="150" height="220" as="geometry" />
        </mxCell>
        <mxCell id="vEPfFsJE0u8WYmD6qUds-23" value="" style="shape=table;startSize=0;container=1;collapsible=0;childLayout=tableLayout;" vertex="1" parent="1">
          <mxGeometry x="240" y="70" width="120" height="160" as="geometry" />
        </mxCell>
        <mxCell id="vEPfFsJE0u8WYmD6qUds-24" value="" style="shape=tableRow;horizontal=0;startSize=0;swimlaneHead=0;swimlaneBody=0;strokeColor=inherit;top=0;left=0;bottom=0;right=0;collapsible=0;dropTarget=0;fillColor=none;points=[[0,0.5],[1,0.5]];portConstraint=eastwest;" vertex="1" parent="vEPfFsJE0u8WYmD6qUds-23">
          <mxGeometry width="120" height="40" as="geometry" />
        </mxCell>
        <mxCell id="vEPfFsJE0u8WYmD6qUds-25" value="name" style="shape=partialRectangle;html=1;whiteSpace=wrap;connectable=0;strokeColor=inherit;overflow=hidden;fillColor=none;top=0;left=0;bottom=0;right=0;pointerEvents=1;" vertex="1" parent="vEPfFsJE0u8WYmD6qUds-24">
          <mxGeometry width="60" height="40" as="geometry">
            <mxRectangle width="60" height="40" as="alternateBounds" />
          </mxGeometry>
        </mxCell>
        <mxCell id="vEPfFsJE0u8WYmD6qUds-26" value="value" style="shape=partialRectangle;html=1;whiteSpace=wrap;connectable=0;strokeColor=inherit;overflow=hidden;fillColor=none;top=0;left=0;bottom=0;right=0;pointerEvents=1;" vertex="1" parent="vEPfFsJE0u8WYmD6qUds-24">
          <mxGeometry x="60" width="60" height="40" as="geometry">
            <mxRectangle width="60" height="40" as="alternateBounds" />
          </mxGeometry>
        </mxCell>
        <mxCell id="vEPfFsJE0u8WYmD6qUds-27" value="" style="shape=tableRow;horizontal=0;startSize=0;swimlaneHead=0;swimlaneBody=0;strokeColor=inherit;top=0;left=0;bottom=0;right=0;collapsible=0;dropTarget=0;fillColor=none;points=[[0,0.5],[1,0.5]];portConstraint=eastwest;" vertex="1" parent="vEPfFsJE0u8WYmD6qUds-23">
          <mxGeometry y="40" width="120" height="40" as="geometry" />
        </mxCell>
        <mxCell id="vEPfFsJE0u8WYmD6qUds-28" value="ptr" style="shape=partialRectangle;html=1;whiteSpace=wrap;connectable=0;strokeColor=inherit;overflow=hidden;fillColor=none;top=0;left=0;bottom=0;right=0;pointerEvents=1;" vertex="1" parent="vEPfFsJE0u8WYmD6qUds-27">
          <mxGeometry width="60" height="40" as="geometry">
            <mxRectangle width="60" height="40" as="alternateBounds" />
          </mxGeometry>
        </mxCell>
        <mxCell id="vEPfFsJE0u8WYmD6qUds-29" value="" style="shape=partialRectangle;html=1;whiteSpace=wrap;connectable=0;strokeColor=inherit;overflow=hidden;fillColor=none;top=0;left=0;bottom=0;right=0;pointerEvents=1;" vertex="1" parent="vEPfFsJE0u8WYmD6qUds-27">
          <mxGeometry x="60" width="60" height="40" as="geometry">
            <mxRectangle width="60" height="40" as="alternateBounds" />
          </mxGeometry>
        </mxCell>
        <mxCell id="vEPfFsJE0u8WYmD6qUds-30" value="" style="shape=tableRow;horizontal=0;startSize=0;swimlaneHead=0;swimlaneBody=0;strokeColor=inherit;top=0;left=0;bottom=0;right=0;collapsible=0;dropTarget=0;fillColor=none;points=[[0,0.5],[1,0.5]];portConstraint=eastwest;" vertex="1" parent="vEPfFsJE0u8WYmD6qUds-23">
          <mxGeometry y="80" width="120" height="40" as="geometry" />
        </mxCell>
        <mxCell id="vEPfFsJE0u8WYmD6qUds-31" value="len" style="shape=partialRectangle;html=1;whiteSpace=wrap;connectable=0;strokeColor=inherit;overflow=hidden;fillColor=none;top=0;left=0;bottom=0;right=0;pointerEvents=1;" vertex="1" parent="vEPfFsJE0u8WYmD6qUds-30">
          <mxGeometry width="60" height="40" as="geometry">
            <mxRectangle width="60" height="40" as="alternateBounds" />
          </mxGeometry>
        </mxCell>
        <mxCell id="vEPfFsJE0u8WYmD6qUds-32" value="11" style="shape=partialRectangle;html=1;whiteSpace=wrap;connectable=0;strokeColor=inherit;overflow=hidden;fillColor=none;top=0;left=0;bottom=0;right=0;pointerEvents=1;" vertex="1" parent="vEPfFsJE0u8WYmD6qUds-30">
          <mxGeometry x="60" width="60" height="40" as="geometry">
            <mxRectangle width="60" height="40" as="alternateBounds" />
          </mxGeometry>
        </mxCell>
        <mxCell id="vEPfFsJE0u8WYmD6qUds-33" value="" style="shape=tableRow;horizontal=0;startSize=0;swimlaneHead=0;swimlaneBody=0;strokeColor=inherit;top=0;left=0;bottom=0;right=0;collapsible=0;dropTarget=0;fillColor=none;points=[[0,0.5],[1,0.5]];portConstraint=eastwest;" vertex="1" parent="vEPfFsJE0u8WYmD6qUds-23">
          <mxGeometry y="120" width="120" height="40" as="geometry" />
        </mxCell>
        <mxCell id="vEPfFsJE0u8WYmD6qUds-34" value="capacity" style="shape=partialRectangle;html=1;whiteSpace=wrap;connectable=0;strokeColor=inherit;overflow=hidden;fillColor=none;top=0;left=0;bottom=0;right=0;pointerEvents=1;" vertex="1" parent="vEPfFsJE0u8WYmD6qUds-33">
          <mxGeometry width="60" height="40" as="geometry">
            <mxRectangle width="60" height="40" as="alternateBounds" />
          </mxGeometry>
        </mxCell>
        <mxCell id="vEPfFsJE0u8WYmD6qUds-35" value="11" style="shape=partialRectangle;html=1;whiteSpace=wrap;connectable=0;strokeColor=inherit;overflow=hidden;fillColor=none;top=0;left=0;bottom=0;right=0;pointerEvents=1;" vertex="1" parent="vEPfFsJE0u8WYmD6qUds-33">
          <mxGeometry x="60" width="60" height="40" as="geometry">
            <mxRectangle width="60" height="40" as="alternateBounds" />
          </mxGeometry>
        </mxCell>
        <mxCell id="vEPfFsJE0u8WYmD6qUds-36" value="" style="endArrow=classic;html=1;rounded=0;entryX=0;entryY=0.5;entryDx=0;entryDy=0;strokeWidth=2;" edge="1" parent="1">
          <mxGeometry width="50" height="50" relative="1" as="geometry">
            <mxPoint x="340" y="130" as="sourcePoint" />
            <mxPoint x="467" y="131" as="targetPoint" />
          </mxGeometry>
        </mxCell>
        <mxCell id="vEPfFsJE0u8WYmD6qUds-37" value="let world = &amp;amp;str[6..11];&lt;div&gt;&lt;br&gt;&lt;/div&gt;" style="rounded=0;whiteSpace=wrap;html=1;verticalAlign=bottom;fillColor=#f8cecc;strokeColor=#b85450;dashed=1;" vertex="1" parent="1">
          <mxGeometry x="230" y="299" width="150" height="182" as="geometry" />
        </mxCell>
        <mxCell id="vEPfFsJE0u8WYmD6qUds-52" value="Rust ownership clice" style="text;strokeColor=none;align=center;fillColor=none;html=1;verticalAlign=middle;whiteSpace=wrap;rounded=0;fontSize=28;" vertex="1" parent="1">
          <mxGeometry x="261" y="610" width="306" height="30" as="geometry" />
        </mxCell>
        <mxCell id="vEPfFsJE0u8WYmD6qUds-72" value="" style="shape=table;startSize=0;container=1;collapsible=0;childLayout=tableLayout;" vertex="1" parent="1">
          <mxGeometry x="467" y="70" width="120" height="480" as="geometry" />
        </mxCell>
        <mxCell id="vEPfFsJE0u8WYmD6qUds-73" value="" style="shape=tableRow;horizontal=0;startSize=0;swimlaneHead=0;swimlaneBody=0;strokeColor=inherit;top=0;left=0;bottom=0;right=0;collapsible=0;dropTarget=0;fillColor=none;points=[[0,0.5],[1,0.5]];portConstraint=eastwest;" vertex="1" parent="vEPfFsJE0u8WYmD6qUds-72">
          <mxGeometry width="120" height="40" as="geometry" />
        </mxCell>
        <mxCell id="vEPfFsJE0u8WYmD6qUds-74" value="index" style="shape=partialRectangle;html=1;whiteSpace=wrap;connectable=0;strokeColor=inherit;overflow=hidden;fillColor=none;top=0;left=0;bottom=0;right=0;pointerEvents=1;" vertex="1" parent="vEPfFsJE0u8WYmD6qUds-73">
          <mxGeometry width="60" height="40" as="geometry">
            <mxRectangle width="60" height="40" as="alternateBounds" />
          </mxGeometry>
        </mxCell>
        <mxCell id="vEPfFsJE0u8WYmD6qUds-75" value="value" style="shape=partialRectangle;html=1;whiteSpace=wrap;connectable=0;strokeColor=inherit;overflow=hidden;fillColor=none;top=0;left=0;bottom=0;right=0;pointerEvents=1;" vertex="1" parent="vEPfFsJE0u8WYmD6qUds-73">
          <mxGeometry x="60" width="60" height="40" as="geometry">
            <mxRectangle width="60" height="40" as="alternateBounds" />
          </mxGeometry>
        </mxCell>
        <mxCell id="vEPfFsJE0u8WYmD6qUds-76" value="" style="shape=tableRow;horizontal=0;startSize=0;swimlaneHead=0;swimlaneBody=0;strokeColor=inherit;top=0;left=0;bottom=0;right=0;collapsible=0;dropTarget=0;fillColor=none;points=[[0,0.5],[1,0.5]];portConstraint=eastwest;" vertex="1" parent="vEPfFsJE0u8WYmD6qUds-72">
          <mxGeometry y="40" width="120" height="40" as="geometry" />
        </mxCell>
        <mxCell id="vEPfFsJE0u8WYmD6qUds-77" value="0" style="shape=partialRectangle;html=1;whiteSpace=wrap;connectable=0;strokeColor=inherit;overflow=hidden;fillColor=none;top=0;left=0;bottom=0;right=0;pointerEvents=1;" vertex="1" parent="vEPfFsJE0u8WYmD6qUds-76">
          <mxGeometry width="60" height="40" as="geometry">
            <mxRectangle width="60" height="40" as="alternateBounds" />
          </mxGeometry>
        </mxCell>
        <mxCell id="vEPfFsJE0u8WYmD6qUds-78" value="h" style="shape=partialRectangle;html=1;whiteSpace=wrap;connectable=0;strokeColor=inherit;overflow=hidden;fillColor=none;top=0;left=0;bottom=0;right=0;pointerEvents=1;" vertex="1" parent="vEPfFsJE0u8WYmD6qUds-76">
          <mxGeometry x="60" width="60" height="40" as="geometry">
            <mxRectangle width="60" height="40" as="alternateBounds" />
          </mxGeometry>
        </mxCell>
        <mxCell id="vEPfFsJE0u8WYmD6qUds-79" value="" style="shape=tableRow;horizontal=0;startSize=0;swimlaneHead=0;swimlaneBody=0;strokeColor=inherit;top=0;left=0;bottom=0;right=0;collapsible=0;dropTarget=0;fillColor=none;points=[[0,0.5],[1,0.5]];portConstraint=eastwest;" vertex="1" parent="vEPfFsJE0u8WYmD6qUds-72">
          <mxGeometry y="80" width="120" height="40" as="geometry" />
        </mxCell>
        <mxCell id="vEPfFsJE0u8WYmD6qUds-80" value="1" style="shape=partialRectangle;html=1;whiteSpace=wrap;connectable=0;strokeColor=inherit;overflow=hidden;fillColor=none;top=0;left=0;bottom=0;right=0;pointerEvents=1;" vertex="1" parent="vEPfFsJE0u8WYmD6qUds-79">
          <mxGeometry width="60" height="40" as="geometry">
            <mxRectangle width="60" height="40" as="alternateBounds" />
          </mxGeometry>
        </mxCell>
        <mxCell id="vEPfFsJE0u8WYmD6qUds-81" value="e" style="shape=partialRectangle;html=1;whiteSpace=wrap;connectable=0;strokeColor=inherit;overflow=hidden;fillColor=none;top=0;left=0;bottom=0;right=0;pointerEvents=1;" vertex="1" parent="vEPfFsJE0u8WYmD6qUds-79">
          <mxGeometry x="60" width="60" height="40" as="geometry">
            <mxRectangle width="60" height="40" as="alternateBounds" />
          </mxGeometry>
        </mxCell>
        <mxCell id="vEPfFsJE0u8WYmD6qUds-82" value="" style="shape=tableRow;horizontal=0;startSize=0;swimlaneHead=0;swimlaneBody=0;strokeColor=inherit;top=0;left=0;bottom=0;right=0;collapsible=0;dropTarget=0;fillColor=none;points=[[0,0.5],[1,0.5]];portConstraint=eastwest;" vertex="1" parent="vEPfFsJE0u8WYmD6qUds-72">
          <mxGeometry y="120" width="120" height="40" as="geometry" />
        </mxCell>
        <mxCell id="vEPfFsJE0u8WYmD6qUds-83" value="2" style="shape=partialRectangle;html=1;whiteSpace=wrap;connectable=0;strokeColor=inherit;overflow=hidden;fillColor=none;top=0;left=0;bottom=0;right=0;pointerEvents=1;" vertex="1" parent="vEPfFsJE0u8WYmD6qUds-82">
          <mxGeometry width="60" height="40" as="geometry">
            <mxRectangle width="60" height="40" as="alternateBounds" />
          </mxGeometry>
        </mxCell>
        <mxCell id="vEPfFsJE0u8WYmD6qUds-84" value="l" style="shape=partialRectangle;html=1;whiteSpace=wrap;connectable=0;strokeColor=inherit;overflow=hidden;fillColor=none;top=0;left=0;bottom=0;right=0;pointerEvents=1;" vertex="1" parent="vEPfFsJE0u8WYmD6qUds-82">
          <mxGeometry x="60" width="60" height="40" as="geometry">
            <mxRectangle width="60" height="40" as="alternateBounds" />
          </mxGeometry>
        </mxCell>
        <mxCell id="vEPfFsJE0u8WYmD6qUds-85" value="" style="shape=tableRow;horizontal=0;startSize=0;swimlaneHead=0;swimlaneBody=0;strokeColor=inherit;top=0;left=0;bottom=0;right=0;collapsible=0;dropTarget=0;fillColor=none;points=[[0,0.5],[1,0.5]];portConstraint=eastwest;" vertex="1" parent="vEPfFsJE0u8WYmD6qUds-72">
          <mxGeometry y="160" width="120" height="40" as="geometry" />
        </mxCell>
        <mxCell id="vEPfFsJE0u8WYmD6qUds-86" value="3" style="shape=partialRectangle;html=1;whiteSpace=wrap;connectable=0;strokeColor=inherit;overflow=hidden;fillColor=none;top=0;left=0;bottom=0;right=0;pointerEvents=1;" vertex="1" parent="vEPfFsJE0u8WYmD6qUds-85">
          <mxGeometry width="60" height="40" as="geometry">
            <mxRectangle width="60" height="40" as="alternateBounds" />
          </mxGeometry>
        </mxCell>
        <mxCell id="vEPfFsJE0u8WYmD6qUds-87" value="l" style="shape=partialRectangle;html=1;whiteSpace=wrap;connectable=0;strokeColor=inherit;overflow=hidden;fillColor=none;top=0;left=0;bottom=0;right=0;pointerEvents=1;" vertex="1" parent="vEPfFsJE0u8WYmD6qUds-85">
          <mxGeometry x="60" width="60" height="40" as="geometry">
            <mxRectangle width="60" height="40" as="alternateBounds" />
          </mxGeometry>
        </mxCell>
        <mxCell id="vEPfFsJE0u8WYmD6qUds-88" value="" style="shape=tableRow;horizontal=0;startSize=0;swimlaneHead=0;swimlaneBody=0;strokeColor=inherit;top=0;left=0;bottom=0;right=0;collapsible=0;dropTarget=0;fillColor=none;points=[[0,0.5],[1,0.5]];portConstraint=eastwest;" vertex="1" parent="vEPfFsJE0u8WYmD6qUds-72">
          <mxGeometry y="200" width="120" height="40" as="geometry" />
        </mxCell>
        <mxCell id="vEPfFsJE0u8WYmD6qUds-89" value="4" style="shape=partialRectangle;html=1;whiteSpace=wrap;connectable=0;strokeColor=inherit;overflow=hidden;fillColor=none;top=0;left=0;bottom=0;right=0;pointerEvents=1;" vertex="1" parent="vEPfFsJE0u8WYmD6qUds-88">
          <mxGeometry width="60" height="40" as="geometry">
            <mxRectangle width="60" height="40" as="alternateBounds" />
          </mxGeometry>
        </mxCell>
        <mxCell id="vEPfFsJE0u8WYmD6qUds-90" value="o" style="shape=partialRectangle;html=1;whiteSpace=wrap;connectable=0;strokeColor=inherit;overflow=hidden;fillColor=none;top=0;left=0;bottom=0;right=0;pointerEvents=1;" vertex="1" parent="vEPfFsJE0u8WYmD6qUds-88">
          <mxGeometry x="60" width="60" height="40" as="geometry">
            <mxRectangle width="60" height="40" as="alternateBounds" />
          </mxGeometry>
        </mxCell>
        <mxCell id="vEPfFsJE0u8WYmD6qUds-91" value="" style="shape=tableRow;horizontal=0;startSize=0;swimlaneHead=0;swimlaneBody=0;strokeColor=inherit;top=0;left=0;bottom=0;right=0;collapsible=0;dropTarget=0;fillColor=none;points=[[0,0.5],[1,0.5]];portConstraint=eastwest;" vertex="1" parent="vEPfFsJE0u8WYmD6qUds-72">
          <mxGeometry y="240" width="120" height="40" as="geometry" />
        </mxCell>
        <mxCell id="vEPfFsJE0u8WYmD6qUds-92" value="5" style="shape=partialRectangle;html=1;whiteSpace=wrap;connectable=0;strokeColor=inherit;overflow=hidden;fillColor=none;top=0;left=0;bottom=0;right=0;pointerEvents=1;" vertex="1" parent="vEPfFsJE0u8WYmD6qUds-91">
          <mxGeometry width="60" height="40" as="geometry">
            <mxRectangle width="60" height="40" as="alternateBounds" />
          </mxGeometry>
        </mxCell>
        <mxCell id="vEPfFsJE0u8WYmD6qUds-93" value="" style="shape=partialRectangle;html=1;whiteSpace=wrap;connectable=0;strokeColor=inherit;overflow=hidden;fillColor=none;top=0;left=0;bottom=0;right=0;pointerEvents=1;" vertex="1" parent="vEPfFsJE0u8WYmD6qUds-91">
          <mxGeometry x="60" width="60" height="40" as="geometry">
            <mxRectangle width="60" height="40" as="alternateBounds" />
          </mxGeometry>
        </mxCell>
        <mxCell id="vEPfFsJE0u8WYmD6qUds-94" value="" style="shape=tableRow;horizontal=0;startSize=0;swimlaneHead=0;swimlaneBody=0;strokeColor=inherit;top=0;left=0;bottom=0;right=0;collapsible=0;dropTarget=0;fillColor=none;points=[[0,0.5],[1,0.5]];portConstraint=eastwest;" vertex="1" parent="vEPfFsJE0u8WYmD6qUds-72">
          <mxGeometry y="280" width="120" height="40" as="geometry" />
        </mxCell>
        <mxCell id="vEPfFsJE0u8WYmD6qUds-95" value="6" style="shape=partialRectangle;html=1;whiteSpace=wrap;connectable=0;strokeColor=inherit;overflow=hidden;fillColor=none;top=0;left=0;bottom=0;right=0;pointerEvents=1;" vertex="1" parent="vEPfFsJE0u8WYmD6qUds-94">
          <mxGeometry width="60" height="40" as="geometry">
            <mxRectangle width="60" height="40" as="alternateBounds" />
          </mxGeometry>
        </mxCell>
        <mxCell id="vEPfFsJE0u8WYmD6qUds-96" value="w" style="shape=partialRectangle;html=1;whiteSpace=wrap;connectable=0;strokeColor=inherit;overflow=hidden;fillColor=none;top=0;left=0;bottom=0;right=0;pointerEvents=1;" vertex="1" parent="vEPfFsJE0u8WYmD6qUds-94">
          <mxGeometry x="60" width="60" height="40" as="geometry">
            <mxRectangle width="60" height="40" as="alternateBounds" />
          </mxGeometry>
        </mxCell>
        <mxCell id="vEPfFsJE0u8WYmD6qUds-97" value="" style="shape=tableRow;horizontal=0;startSize=0;swimlaneHead=0;swimlaneBody=0;strokeColor=inherit;top=0;left=0;bottom=0;right=0;collapsible=0;dropTarget=0;fillColor=none;points=[[0,0.5],[1,0.5]];portConstraint=eastwest;" vertex="1" parent="vEPfFsJE0u8WYmD6qUds-72">
          <mxGeometry y="320" width="120" height="40" as="geometry" />
        </mxCell>
        <mxCell id="vEPfFsJE0u8WYmD6qUds-98" value="7" style="shape=partialRectangle;html=1;whiteSpace=wrap;connectable=0;strokeColor=inherit;overflow=hidden;fillColor=none;top=0;left=0;bottom=0;right=0;pointerEvents=1;" vertex="1" parent="vEPfFsJE0u8WYmD6qUds-97">
          <mxGeometry width="60" height="40" as="geometry">
            <mxRectangle width="60" height="40" as="alternateBounds" />
          </mxGeometry>
        </mxCell>
        <mxCell id="vEPfFsJE0u8WYmD6qUds-99" value="o" style="shape=partialRectangle;html=1;whiteSpace=wrap;connectable=0;strokeColor=inherit;overflow=hidden;fillColor=none;top=0;left=0;bottom=0;right=0;pointerEvents=1;" vertex="1" parent="vEPfFsJE0u8WYmD6qUds-97">
          <mxGeometry x="60" width="60" height="40" as="geometry">
            <mxRectangle width="60" height="40" as="alternateBounds" />
          </mxGeometry>
        </mxCell>
        <mxCell id="vEPfFsJE0u8WYmD6qUds-100" value="" style="shape=tableRow;horizontal=0;startSize=0;swimlaneHead=0;swimlaneBody=0;strokeColor=inherit;top=0;left=0;bottom=0;right=0;collapsible=0;dropTarget=0;fillColor=none;points=[[0,0.5],[1,0.5]];portConstraint=eastwest;" vertex="1" parent="vEPfFsJE0u8WYmD6qUds-72">
          <mxGeometry y="360" width="120" height="40" as="geometry" />
        </mxCell>
        <mxCell id="vEPfFsJE0u8WYmD6qUds-101" value="8" style="shape=partialRectangle;html=1;whiteSpace=wrap;connectable=0;strokeColor=inherit;overflow=hidden;fillColor=none;top=0;left=0;bottom=0;right=0;pointerEvents=1;" vertex="1" parent="vEPfFsJE0u8WYmD6qUds-100">
          <mxGeometry width="60" height="40" as="geometry">
            <mxRectangle width="60" height="40" as="alternateBounds" />
          </mxGeometry>
        </mxCell>
        <mxCell id="vEPfFsJE0u8WYmD6qUds-102" value="r" style="shape=partialRectangle;html=1;whiteSpace=wrap;connectable=0;strokeColor=inherit;overflow=hidden;fillColor=none;top=0;left=0;bottom=0;right=0;pointerEvents=1;" vertex="1" parent="vEPfFsJE0u8WYmD6qUds-100">
          <mxGeometry x="60" width="60" height="40" as="geometry">
            <mxRectangle width="60" height="40" as="alternateBounds" />
          </mxGeometry>
        </mxCell>
        <mxCell id="vEPfFsJE0u8WYmD6qUds-103" value="" style="shape=tableRow;horizontal=0;startSize=0;swimlaneHead=0;swimlaneBody=0;strokeColor=inherit;top=0;left=0;bottom=0;right=0;collapsible=0;dropTarget=0;fillColor=none;points=[[0,0.5],[1,0.5]];portConstraint=eastwest;" vertex="1" parent="vEPfFsJE0u8WYmD6qUds-72">
          <mxGeometry y="400" width="120" height="40" as="geometry" />
        </mxCell>
        <mxCell id="vEPfFsJE0u8WYmD6qUds-104" value="9" style="shape=partialRectangle;html=1;whiteSpace=wrap;connectable=0;strokeColor=inherit;overflow=hidden;fillColor=none;top=0;left=0;bottom=0;right=0;pointerEvents=1;" vertex="1" parent="vEPfFsJE0u8WYmD6qUds-103">
          <mxGeometry width="60" height="40" as="geometry">
            <mxRectangle width="60" height="40" as="alternateBounds" />
          </mxGeometry>
        </mxCell>
        <mxCell id="vEPfFsJE0u8WYmD6qUds-105" value="l" style="shape=partialRectangle;html=1;whiteSpace=wrap;connectable=0;strokeColor=inherit;overflow=hidden;fillColor=none;top=0;left=0;bottom=0;right=0;pointerEvents=1;" vertex="1" parent="vEPfFsJE0u8WYmD6qUds-103">
          <mxGeometry x="60" width="60" height="40" as="geometry">
            <mxRectangle width="60" height="40" as="alternateBounds" />
          </mxGeometry>
        </mxCell>
        <mxCell id="vEPfFsJE0u8WYmD6qUds-106" value="" style="shape=tableRow;horizontal=0;startSize=0;swimlaneHead=0;swimlaneBody=0;strokeColor=inherit;top=0;left=0;bottom=0;right=0;collapsible=0;dropTarget=0;fillColor=none;points=[[0,0.5],[1,0.5]];portConstraint=eastwest;" vertex="1" parent="vEPfFsJE0u8WYmD6qUds-72">
          <mxGeometry y="440" width="120" height="40" as="geometry" />
        </mxCell>
        <mxCell id="vEPfFsJE0u8WYmD6qUds-107" value="10" style="shape=partialRectangle;html=1;whiteSpace=wrap;connectable=0;strokeColor=inherit;overflow=hidden;fillColor=none;top=0;left=0;bottom=0;right=0;pointerEvents=1;" vertex="1" parent="vEPfFsJE0u8WYmD6qUds-106">
          <mxGeometry width="60" height="40" as="geometry">
            <mxRectangle width="60" height="40" as="alternateBounds" />
          </mxGeometry>
        </mxCell>
        <mxCell id="vEPfFsJE0u8WYmD6qUds-108" value="d" style="shape=partialRectangle;html=1;whiteSpace=wrap;connectable=0;strokeColor=inherit;overflow=hidden;fillColor=none;top=0;left=0;bottom=0;right=0;pointerEvents=1;" vertex="1" parent="vEPfFsJE0u8WYmD6qUds-106">
          <mxGeometry x="60" width="60" height="40" as="geometry">
            <mxRectangle width="60" height="40" as="alternateBounds" />
          </mxGeometry>
        </mxCell>
        <mxCell id="vEPfFsJE0u8WYmD6qUds-109" value="" style="shape=table;startSize=0;container=1;collapsible=0;childLayout=tableLayout;" vertex="1" parent="1">
          <mxGeometry x="240" y="311" width="120" height="120" as="geometry" />
        </mxCell>
        <mxCell id="vEPfFsJE0u8WYmD6qUds-110" value="" style="shape=tableRow;horizontal=0;startSize=0;swimlaneHead=0;swimlaneBody=0;strokeColor=inherit;top=0;left=0;bottom=0;right=0;collapsible=0;dropTarget=0;fillColor=none;points=[[0,0.5],[1,0.5]];portConstraint=eastwest;" vertex="1" parent="vEPfFsJE0u8WYmD6qUds-109">
          <mxGeometry width="120" height="40" as="geometry" />
        </mxCell>
        <mxCell id="vEPfFsJE0u8WYmD6qUds-111" value="name" style="shape=partialRectangle;html=1;whiteSpace=wrap;connectable=0;strokeColor=inherit;overflow=hidden;fillColor=none;top=0;left=0;bottom=0;right=0;pointerEvents=1;" vertex="1" parent="vEPfFsJE0u8WYmD6qUds-110">
          <mxGeometry width="60" height="40" as="geometry">
            <mxRectangle width="60" height="40" as="alternateBounds" />
          </mxGeometry>
        </mxCell>
        <mxCell id="vEPfFsJE0u8WYmD6qUds-112" value="value" style="shape=partialRectangle;html=1;whiteSpace=wrap;connectable=0;strokeColor=inherit;overflow=hidden;fillColor=none;top=0;left=0;bottom=0;right=0;pointerEvents=1;" vertex="1" parent="vEPfFsJE0u8WYmD6qUds-110">
          <mxGeometry x="60" width="60" height="40" as="geometry">
            <mxRectangle width="60" height="40" as="alternateBounds" />
          </mxGeometry>
        </mxCell>
        <mxCell id="vEPfFsJE0u8WYmD6qUds-113" value="" style="shape=tableRow;horizontal=0;startSize=0;swimlaneHead=0;swimlaneBody=0;strokeColor=inherit;top=0;left=0;bottom=0;right=0;collapsible=0;dropTarget=0;fillColor=none;points=[[0,0.5],[1,0.5]];portConstraint=eastwest;" vertex="1" parent="vEPfFsJE0u8WYmD6qUds-109">
          <mxGeometry y="40" width="120" height="40" as="geometry" />
        </mxCell>
        <mxCell id="vEPfFsJE0u8WYmD6qUds-114" value="ptr" style="shape=partialRectangle;html=1;whiteSpace=wrap;connectable=0;strokeColor=inherit;overflow=hidden;fillColor=none;top=0;left=0;bottom=0;right=0;pointerEvents=1;" vertex="1" parent="vEPfFsJE0u8WYmD6qUds-113">
          <mxGeometry width="60" height="40" as="geometry">
            <mxRectangle width="60" height="40" as="alternateBounds" />
          </mxGeometry>
        </mxCell>
        <mxCell id="vEPfFsJE0u8WYmD6qUds-115" value="" style="shape=partialRectangle;html=1;whiteSpace=wrap;connectable=0;strokeColor=inherit;overflow=hidden;fillColor=none;top=0;left=0;bottom=0;right=0;pointerEvents=1;" vertex="1" parent="vEPfFsJE0u8WYmD6qUds-113">
          <mxGeometry x="60" width="60" height="40" as="geometry">
            <mxRectangle width="60" height="40" as="alternateBounds" />
          </mxGeometry>
        </mxCell>
        <mxCell id="vEPfFsJE0u8WYmD6qUds-116" value="" style="shape=tableRow;horizontal=0;startSize=0;swimlaneHead=0;swimlaneBody=0;strokeColor=inherit;top=0;left=0;bottom=0;right=0;collapsible=0;dropTarget=0;fillColor=none;points=[[0,0.5],[1,0.5]];portConstraint=eastwest;" vertex="1" parent="vEPfFsJE0u8WYmD6qUds-109">
          <mxGeometry y="80" width="120" height="40" as="geometry" />
        </mxCell>
        <mxCell id="vEPfFsJE0u8WYmD6qUds-117" value="len" style="shape=partialRectangle;html=1;whiteSpace=wrap;connectable=0;strokeColor=inherit;overflow=hidden;fillColor=none;top=0;left=0;bottom=0;right=0;pointerEvents=1;" vertex="1" parent="vEPfFsJE0u8WYmD6qUds-116">
          <mxGeometry width="60" height="40" as="geometry">
            <mxRectangle width="60" height="40" as="alternateBounds" />
          </mxGeometry>
        </mxCell>
        <mxCell id="vEPfFsJE0u8WYmD6qUds-118" value="5" style="shape=partialRectangle;html=1;whiteSpace=wrap;connectable=0;strokeColor=inherit;overflow=hidden;fillColor=none;top=0;left=0;bottom=0;right=0;pointerEvents=1;" vertex="1" parent="vEPfFsJE0u8WYmD6qUds-116">
          <mxGeometry x="60" width="60" height="40" as="geometry">
            <mxRectangle width="60" height="40" as="alternateBounds" />
          </mxGeometry>
        </mxCell>
        <mxCell id="vEPfFsJE0u8WYmD6qUds-51" value="" style="endArrow=classic;html=1;rounded=0;strokeWidth=2;entryX=0;entryY=0.5;entryDx=0;entryDy=0;" edge="1" parent="1">
          <mxGeometry width="50" height="50" relative="1" as="geometry">
            <mxPoint x="337" y="372" as="sourcePoint" />
            <mxPoint x="467" y="372" as="targetPoint" />
          </mxGeometry>
        </mxCell>
      </root>
    </mxGraphModel>
  </diagram>
</mxfile>
